<svg width="922" height="655" viewBox="0 0 922 655" fill="none" xmlns="http://www.w3.org/2000/svg">
<path d="M0 327.467V654.8H158.4C340.933 654.8 357.067 654.133 396.933 644.8C486.4 623.733 540 558.533 540 470.8C540 415.867 519.067 371.067 479.6 341.333C463.067 328.933 437.2 317.067 420.133 314.133C414.8 313.2 412.4 310.8 417.067 310.8C421.333 310.8 440.8 302 451.467 295.467C463.867 287.733 482.533 269.733 490.667 257.6C521.467 211.6 526 142.533 501.2 93.2C476.533 44.1334 430.8 16 355.6 3.73334C338.4 0.93335 334.267 0.93335 169.067 0.533325L0 0V327.467ZM298.267 119.6C323.333 124.8 342.133 137.467 353.467 156.8C359.333 166.667 361.467 175.867 361.6 189.867C361.733 225.733 340.933 250.8 301.867 261.733C291.733 264.533 288.8 264.667 219.733 265.2L148 265.6V191.6V117.467H218C276.533 117.467 289.733 117.867 298.267 119.6ZM323.2 378.533C346.4 384.933 364.8 397.733 376.133 415.067C388.667 434.667 390.267 469.2 379.467 490.533C368.667 512 348.667 526.4 318.667 534.533L306 538L227.067 538.533L148 538.933V456.8V374.667L230.4 375.067C310.4 375.6 312.933 375.6 323.2 378.533Z" fill="#353536"/>
<path d="M635.218 545.707C636.353 545.707 637.383 545.708 638.406 545.62C648.47 544.753 657.798 535.325 758.945 433.097L759.133 432.907C817.133 374.374 865.267 325.04 866.2 323.306C870.334 315.573 870.2 307.172 865.4 255.174L860.734 204.106L854.333 152.507C852.6 138.24 850.6 133.04 844.866 126.374C836.866 117.307 831.133 115.04 811.8 113.44C802.202 112.64 794.336 111.574 794.333 111.174L776.666 109.84L747.666 107.84C741.399 107.44 721.933 105.84 704.333 104.24C670.733 101.307 662.6 101.44 655.4 105.04C652.999 106.374 622.599 135.573 587.933 170.106C527.933 229.973 524.6 233.574 520.333 242.64C510.067 264.907 490.333 289.173 471.533 303.306L462.333 310.106L474.067 316.773C498.733 330.906 515.667 346.507 530.333 368.907C539 382.107 550.6 409.574 553.666 424.107C556.333 436.374 558.733 464.373 558.067 476.24L557.666 486.107L587 512.773C617.667 540.64 625 545.707 635 545.707H635.218ZM797.908 203.83C787.016 210.672 771.801 206.056 763.926 193.519C756.051 180.982 758.497 165.272 769.39 158.429C780.283 151.587 795.497 156.203 803.372 168.74C811.248 181.277 808.801 196.987 797.908 203.83Z" fill="#4B555A"/>
<path d="M772.667 109.793L798.167 112.04C806.967 95.6401 822.167 84.6258 828.667 81.2925C836.667 77.7925 854.967 72.8925 864.167 81.2925C873.367 89.6925 872.333 107.126 870.667 114.792C868.167 121.959 858.567 140.692 840.167 158.292C817.167 180.292 788.667 174.792 787.167 174.792C785.667 174.792 781.667 177.292 781.167 183.792C780.767 188.992 783 192.626 784.167 193.792C802.567 205.392 831.5 191.959 843.667 183.792C850.333 179.459 866.867 166.292 879.667 148.292C895.667 125.792 893.667 106.792 893.167 92.2925C892.667 77.7925 881.167 60.7925 862.167 56.2925C843.167 51.7925 822.167 59.7925 803.667 74.2925C788.867 85.8925 776.833 102.793 772.667 109.793Z" fill="#353536"/>
</svg>
